<?xml version="1.0" encoding="UTF-8"?>
<svg version="1.1" xmlns="http://www.w3.org/2000/svg" width="512" height="512">
<path d="M0 0 C1.26089416 -0.01043099 2.52178831 -0.02086198 3.82089138 -0.03160906 C5.21762761 -0.02296108 6.61436153 -0.01393447 8.01109314 -0.00457001 C9.49677931 -0.00917872 10.98246092 -0.01553143 12.46813297 -0.02347898 C16.55187362 -0.0401998 20.63524107 -0.0319136 24.71898317 -0.01953411 C29.12260263 -0.01049714 33.52615717 -0.02444661 37.92976379 -0.0354538 C46.55688565 -0.0532581 55.18386847 -0.04939054 63.81099582 -0.03780323 C70.82123886 -0.02877669 77.83144288 -0.02754153 84.84169006 -0.0318985 C86.33720354 -0.0328179 86.33720354 -0.0328179 87.8629294 -0.03375587 C89.88821309 -0.03503475 91.91349676 -0.0363316 93.93878043 -0.03764623 C112.93840123 -0.04905763 131.93794489 -0.03592955 150.93755305 -0.01444477 C167.2468544 0.00342672 183.55604189 0.00032277 199.86534119 -0.01811981 C218.79608632 -0.03951664 237.7267638 -0.04795894 256.65751934 -0.03567076 C258.67543219 -0.03439653 260.69334506 -0.03313905 262.71125793 -0.0318985 C263.70415913 -0.0312814 264.69706033 -0.03066429 265.72004944 -0.03002849 C272.72342205 -0.02657203 279.72675182 -0.03241032 286.7301178 -0.04181671 C295.26268589 -0.05302488 303.79510676 -0.05002157 312.32765794 -0.02869374 C316.6827176 -0.01816737 321.03753162 -0.01408839 325.39258957 -0.02729034 C329.37740137 -0.03918741 333.36173926 -0.03269652 337.34650791 -0.01138014 C338.7899055 -0.00690261 340.23334292 -0.00920612 341.67671502 -0.01888329 C343.63543191 -0.0310108 345.59426058 -0.01620362 347.552948 0 C348.64193358 0.00064941 349.73091917 0.00129882 350.85290432 0.00196791 C354.50185239 0.62776806 356.16943838 1.91730718 358.776474 4.50336456 C359.78264166 7.52186755 359.91304669 9.56632354 359.93469238 12.72350311 C359.94937561 14.34520668 359.94937561 14.34520668 359.96435547 15.99967194 C359.97011093 17.18578064 359.97586639 18.37188934 359.98179626 19.59394073 C359.99169586 20.84283585 360.00159546 22.09173096 360.01179504 23.37847137 C360.0379912 26.80379923 360.05984978 30.22910367 360.07979703 33.65447021 C360.10166172 37.23395405 360.12904805 40.81339551 360.15585327 44.39284515 C360.20577362 51.17133819 360.25071489 57.94985477 360.29387563 64.72839385 C360.34325363 72.44539412 360.39816967 80.16235184 360.45355523 87.87931097 C360.56736518 103.75395619 360.67420637 119.62864053 360.776474 135.50336456 C361.17766449 134.81560944 361.57885498 134.12785431 361.99220276 133.41925812 C371.28672791 117.48578644 371.28672791 117.48578644 373.11018372 114.36077118 C374.12194367 112.62577361 375.13285963 110.89028301 376.14222717 109.15389252 C383.2427046 96.94271806 390.93345061 87.64109612 405.19444275 83.86273956 C418.50495503 82.01014179 429.76292472 84.00704859 440.78038025 91.88227081 C447.81500829 97.5953249 452.85403376 105.60095562 454.776474 114.50336456 C454.94991973 117.3723275 455.05318568 120.19564167 455.088974 123.06586456 C455.11797791 123.81416534 455.14698181 124.56246613 455.17686462 125.33344269 C455.29819715 136.31870281 450.07444045 145.28796945 444.526474 154.44086456 C443.26990546 156.55333731 442.0147547 158.66665389 440.760849 160.78070831 C440.10793884 161.87753937 439.45502869 162.97437042 438.78233337 164.10443878 C435.72737535 169.28106069 432.75502713 174.5039426 429.78489685 179.7294693 C423.94569377 190.00108767 418.03593438 200.22921761 412.0655365 210.42523956 C407.58481134 218.08910431 403.17153176 225.79022291 398.776474 233.50336456 C393.24669248 243.20692526 387.66342559 252.87727253 382.02378845 262.51752472 C377.47847018 270.28992107 372.96426375 278.07984414 368.463974 285.87836456 C367.81098328 287.00903351 367.15799255 288.13970245 366.48521423 289.30463409 C365.88394714 290.34732452 365.28268005 291.39001495 364.66319275 292.46430206 C364.12911804 293.39033234 363.59504333 294.31636261 363.04478455 295.27045441 C360.86322319 299.11117822 360.6499702 301.31172329 360.64517212 305.77771759 C360.64305641 306.42856142 360.64094069 307.07940526 360.63876086 307.74997163 C360.63274744 309.94089795 360.63376197 312.1317669 360.6346283 314.3227005 C360.63159764 315.88959603 360.62807645 317.45649068 360.62409973 319.02338409 C360.61620241 322.40318399 360.61106266 325.78297328 360.60780907 329.16278076 C360.60190547 334.50780731 360.58537081 339.85276704 360.56646729 345.19776154 C360.56012961 347.02681347 360.55380399 348.85586544 360.54749012 350.68491745 C360.54432431 351.60102688 360.5411585 352.51713632 360.53789675 353.46100664 C360.49580437 365.90773122 360.46284833 378.35442513 360.45054626 390.80121613 C360.44216721 399.19252703 360.419681 407.58367303 360.3811906 415.97490144 C360.36142204 420.41625657 360.34902792 424.85736514 360.35402489 429.29876709 C360.35866987 433.47838992 360.34487445 437.65754561 360.31701279 441.83707428 C360.31009803 443.36969469 360.30997755 444.90236337 360.31721306 446.4349823 C360.32610719 448.53090164 360.31040191 450.62528236 360.28872681 452.72107697 C360.28514428 454.4787269 360.28514428 454.4787269 360.28148937 456.27188492 C359.66617706 460.20912986 358.23501355 462.40390508 355.776474 465.50336456 C353.0688276 466.85718776 350.95808726 466.63389086 347.9248848 466.64037895 C346.67058048 466.64545349 345.41627617 466.65052804 344.12396264 466.65575635 C342.71909098 466.65635808 341.31421927 466.65685715 339.90934753 466.65726471 C338.42696827 466.66127781 336.94459011 466.66571577 335.46221328 466.67054427 C331.37374987 466.68253261 327.28529828 466.68816344 323.19682074 466.69272542 C318.79314744 466.69867294 314.38948833 466.71028486 309.98582458 466.72101593 C299.34360635 466.74555898 288.70138341 466.76016962 278.05914557 466.773076 C275.05473304 466.77678646 272.05032099 466.78075981 269.04590893 466.78482866 C250.40013399 466.81006304 231.75435835 466.83212227 213.1085701 466.84455681 C208.78791043 466.84748664 204.46725079 466.85044829 200.14659119 466.85346222 C199.07267473 466.85420827 197.99875828 466.85495432 196.89229891 466.85572298 C179.4885403 466.86838143 162.08488375 466.90160997 144.68117288 466.94326405 C126.82462394 466.98565262 108.96812729 467.00924826 91.11152816 467.01447737 C81.08103448 467.01789493 71.05070029 467.02969061 61.02025604 467.06258011 C52.47923105 467.09053949 43.93839824 467.10159806 35.39733103 467.09038465 C31.03804663 467.08518747 26.67916492 467.08815306 22.31993866 467.11285019 C18.32996532 467.13526703 14.3406857 467.13466245 10.35070083 467.11564632 C8.90650858 467.11283561 7.46227005 467.11850419 6.01815251 467.13345926 C-6.11565066 467.25144228 -6.11565066 467.25144228 -10.05946732 464.21536446 C-12.98722721 460.54629366 -13.34890738 457.7554377 -13.34657383 453.15368271 C-13.34856488 452.28531981 -13.35055593 451.41695691 -13.35260731 450.52227998 C-13.34969447 449.57286711 -13.34678163 448.62345425 -13.34378052 447.6452713 C-13.34463494 446.63321617 -13.34548937 445.62116104 -13.34636968 444.57843757 C-13.34802059 441.17741883 -13.34250942 437.77644909 -13.33705139 434.37543488 C-13.33676941 431.94137829 -13.33692747 429.50732161 -13.3374939 427.07326508 C-13.33772183 421.82785567 -13.33488007 416.5824574 -13.32925606 411.33705139 C-13.32112996 403.75306947 -13.3185247 396.16909357 -13.31726807 388.58510777 C-13.3150793 376.28067564 -13.30842394 363.97625013 -13.29896545 351.67182159 C-13.28978682 339.71902245 -13.28270819 327.76622511 -13.27845764 315.81342316 C-13.27819492 315.07668614 -13.27793219 314.33994913 -13.27766151 313.58088675 C-13.27635647 309.8849037 -13.27509277 306.18892064 -13.27384961 302.49293756 C-13.26348244 271.82974182 -13.24579454 241.16655411 -13.223526 210.50336456 C-13.87313293 210.52431183 -14.52273987 210.54525909 -15.19203186 210.56684113 C-18.18153433 210.65082039 -21.17078759 210.70228056 -24.161026 210.75336456 C-25.69339905 210.803638 -25.69339905 210.803638 -27.25672913 210.85492706 C-35.88249645 210.96516051 -42.91190169 209.06055481 -49.536026 203.31586456 C-50.15090881 202.80668488 -50.76579163 202.29750519 -51.39930725 201.77289581 C-56.84272091 195.00068311 -57.81324769 187.99790401 -57.75697327 179.5426712 C-57.76558884 178.48452713 -57.77420441 177.42638306 -57.78308105 176.33617401 C-57.80565912 172.86170265 -57.79901669 169.38804323 -57.78993225 165.91352081 C-57.79517145 163.48411064 -57.80144901 161.0547025 -57.80871582 158.62529755 C-57.81910506 153.54231928 -57.81457951 148.45962122 -57.79994202 143.37665558 C-57.78275787 136.87911795 -57.80625403 130.38246495 -57.84143162 123.88502598 C-57.8634447 118.87052863 -57.86195453 113.85624166 -57.85366631 108.84171104 C-57.85284892 106.44684059 -57.85967131 104.05195436 -57.87443733 101.65712929 C-57.89195442 98.30202521 -57.87727923 94.94849472 -57.85462952 91.59345245 C-57.86632172 90.61496338 -57.87801392 89.6364743 -57.89006042 88.62833405 C-57.78286986 80.78175421 -55.61333062 74.22778717 -50.26310062 68.34941959 C-43.46393834 61.80179999 -36.55406051 60.1517044 -27.34461975 60.23969269 C-26.31465881 60.26482941 -25.28469788 60.28996613 -24.223526 60.31586456 C-23.16262756 60.32939972 -22.10172913 60.34293488 -21.00868225 60.35688019 C-18.41308913 60.39195577 -15.81858533 60.44110613 -13.223526 60.50336456 C-13.23018784 59.56162132 -13.23018784 59.56162132 -13.23698425 58.60085297 C-13.28124875 52.0634158 -13.31140546 45.52602126 -13.33338928 38.98847198 C-13.34344361 36.54900127 -13.35708892 34.10954259 -13.37440491 31.67011261 C-13.39867782 28.16267677 -13.41001491 24.65540035 -13.4188385 21.14789581 C-13.42916107 20.0581395 -13.43948364 18.96838318 -13.45011902 17.84560394 C-13.45034561 16.3145829 -13.45034561 16.3145829 -13.45057678 14.75263214 C-13.45501801 13.85772568 -13.45945923 12.96281921 -13.46403503 12.04079437 C-13.06471203 7.82783791 -12.09749307 5.34852163 -9.03135204 2.3834548 C-5.70290545 0.15476262 -3.97229166 0.00236885 0 0 Z M7.776474 21.50336456 C7.776474 34.37336456 7.776474 47.24336456 7.776474 60.50336456 C11.29971344 60.50701019 14.82295288 60.51065582 18.45295715 60.51441193 C50.77649045 60.54970336 83.09994052 60.60474938 115.4234032 60.68128552 C119.66153583 60.69130273 123.89966884 60.7011469 128.13780212 60.71088409 C129.40338344 60.71379615 129.40338344 60.71379615 130.69453205 60.71676704 C144.34830961 60.74777143 158.00207038 60.76476333 171.6558765 60.77655879 C185.67038646 60.78897844 199.68480837 60.81649821 213.69926274 60.85797763 C222.34398454 60.88308975 230.9885603 60.89648351 239.63331909 60.89479414 C245.56478527 60.89476434 251.49610288 60.90942809 257.42751114 60.93552884 C260.84749291 60.95014799 264.26717006 60.95840104 267.68717766 60.94916725 C271.40182781 60.94252804 275.1155933 60.9604485 278.83015442 60.98438263 C279.90216437 60.97662221 280.97417433 60.96886179 282.07866943 60.96086621 C290.04623269 61.05155763 296.97569586 62.5918892 303.39756775 67.51117706 C303.99698181 68.20984894 304.59639587 68.90852081 305.213974 69.62836456 C305.83143494 70.31156769 306.44889587 70.99477081 307.08506775 71.69867706 C311.42165303 78.88959677 312.22009905 86.60725574 312.16465759 94.84320831 C312.17254303 96.31360062 312.17254303 96.31360062 312.18058777 97.81369781 C312.1936874 101.02292015 312.18508529 104.23163803 312.1749115 107.44086456 C312.17693511 109.68948206 312.17984894 111.93809891 312.18360901 114.18671417 C312.18801879 118.88705476 312.18164465 123.5872237 312.16758728 128.28754425 C312.15049642 134.29274411 312.16034481 140.29754162 312.17830467 146.30272675 C312.18917886 150.94231919 312.18567949 155.58181727 312.1779213 160.22141266 C312.17592934 162.43485309 312.17834301 164.64830228 312.18535995 166.86173248 C312.19303435 169.96255733 312.18128648 173.06274318 312.16465759 176.16352081 C312.17073029 177.06563293 312.17680298 177.96774506 312.18305969 178.89719391 C312.10360613 186.95142032 310.77897789 195.2208446 305.213974 201.37836456 C304.61455994 202.07703644 304.01514587 202.77570831 303.39756775 203.49555206 C295.92969395 209.2160992 287.97290458 210.08853204 278.83015442 210.0223465 C277.08387007 210.03359837 277.08387007 210.03359837 275.30230725 210.04507756 C272.09806463 210.06176981 268.89440743 210.06082131 265.69015169 210.05217004 C262.22466926 210.04720109 258.75929551 210.06533986 255.29385376 210.08058929 C249.2987857 210.1038463 243.30383842 210.11265229 237.30872726 210.11148071 C228.64096701 210.10980798 219.97336725 210.13018166 211.30564989 210.15583602 C197.2409194 210.19687003 183.17621787 210.22021798 169.11143494 210.23236847 C155.45352895 210.24420551 141.79567775 210.26446421 128.13780212 210.29584503 C127.28652874 210.29779055 126.43525536 210.29973606 125.55818582 210.30174053 C118.90009314 210.31702254 112.24200164 210.33279103 105.58391047 210.34871316 C72.98144058 210.42655415 40.37904995 210.46198548 7.776474 210.50336456 C7.776474 288.05336456 7.776474 365.60336456 7.776474 445.50336456 C117.006474 445.50336456 226.236474 445.50336456 338.776474 445.50336456 C338.776474 409.86336456 338.776474 374.22336456 338.776474 337.50336456 C334.85008422 341.87636573 334.85008422 341.87636573 333.776474 345.19086456 C332.51724143 348.10283989 331.58718998 348.1802579 328.776474 349.50336456 C327.21402932 350.50953632 325.66841216 351.54208265 324.135849 352.59320831 C323.2381781 353.20712433 322.3405072 353.82104034 321.41563416 354.45355988 C319.98549988 355.4372757 319.98549988 355.4372757 318.526474 356.44086456 C317.54082458 357.11601105 316.55517517 357.79115753 315.53965759 358.486763 C312.61684375 360.48975712 309.69637379 362.49612562 306.776474 364.50336456 C305.29476206 365.52037746 303.81299761 366.53731385 302.3311615 367.55414581 C297.04124241 371.18681885 291.75399861 374.8230123 286.48350525 378.48383331 C285.41205261 379.22584991 285.41205261 379.22584991 284.31895447 379.98285675 C282.96606622 380.91993035 281.61469669 381.85920247 280.26524353 382.80121613 C267.94268642 391.32552622 267.94268642 391.32552622 261.776474 390.50336456 C258.43382195 389.29629577 257.82942834 388.58279607 255.776474 385.50336456 C254.91503906 376.34005423 256.18298097 367.01622026 257.2374115 357.91742706 C257.39002175 356.56277297 257.54216248 355.20806591 257.69386292 353.85330963 C258.01039646 351.04096283 258.33193775 348.22925018 258.65733337 345.41791534 C259.07209406 341.83164178 259.47491814 338.24414599 259.87415123 334.65611458 C260.18543542 331.86908978 260.50255178 329.08275235 260.82144547 326.2965889 C261.04486544 324.33669234 261.26379493 322.37628554 261.48262024 320.41587067 C262.41614846 312.42188472 263.3165617 305.48840824 267.50694275 298.48383331 C268.05471375 297.55780304 268.60248474 296.63177277 269.16685486 295.67768097 C269.75990417 294.69203156 270.35295349 293.70638214 270.963974 292.69086456 C272.24074319 290.53634761 273.51675958 288.38138441 274.792099 286.22602081 C275.45145447 285.11629913 276.11080994 284.00657745 276.79014587 282.86322784 C279.97472373 277.47653163 283.09410226 272.05271036 286.213974 266.62836456 C287.47298688 264.44341012 288.732102 262.25851459 289.99131775 260.07367706 C290.61635193 258.9886087 291.24138611 257.90354034 291.88536072 256.78559113 C295.01327548 251.35676514 298.14505848 245.93017175 301.276474 240.50336456 C302.52649279 238.33670874 303.77649278 236.17004207 305.026474 234.00336456 C316.276474 214.50336456 327.526474 195.00336456 338.776474 175.50336456 C338.776474 124.68336456 338.776474 73.86336456 338.776474 21.50336456 C229.546474 21.50336456 120.316474 21.50336456 7.776474 21.50336456 Z M-36.223526 84.50336456 C-37.24546223 87.17173894 -37.3502726 89.68020687 -37.35723877 92.51934052 C-37.36150375 93.30854385 -37.36576874 94.09774719 -37.37016296 94.91086578 C-37.36970978 95.76759888 -37.36925659 96.62433197 -37.36878967 97.50702667 C-37.37214828 98.41641495 -37.3755069 99.32580322 -37.37896729 100.26274872 C-37.38846592 103.26874914 -37.39041977 106.27469381 -37.39149475 109.28070831 C-37.39470779 111.37051669 -37.3980719 113.46032485 -37.40158081 115.55013275 C-37.40756915 119.93062614 -37.40942098 124.3110998 -37.40882874 128.69159698 C-37.40872706 134.30502411 -37.42238588 139.9183249 -37.43960094 145.53172207 C-37.4507176 149.84769522 -37.45274805 154.16363779 -37.45221901 158.47962379 C-37.45339937 160.54927316 -37.4578243 162.6189233 -37.46555138 164.68855858 C-37.47534557 167.58256522 -37.47247555 170.47629688 -37.46644592 173.37030792 C-37.47206543 174.22501678 -37.47768494 175.07972565 -37.48347473 175.96033478 C-37.46100478 180.2032173 -37.38280592 183.71978361 -35.223526 187.50336456 C-31.86897832 189.73972968 -30.78674856 189.7555352 -26.86799717 189.76342678 C-25.74980424 189.77049237 -24.6316113 189.77755796 -23.47953373 189.78483766 C-22.24589728 189.78242258 -21.01226083 189.78000749 -19.74124146 189.77751923 C-18.43476369 189.7827559 -17.12828592 189.78799258 -15.78221792 189.79338795 C-12.14819429 189.80760007 -8.51425606 189.80923064 -4.88020861 189.80879104 C-0.96397474 189.8104364 2.95222365 189.8234975 6.86843872 189.83498383 C15.43437164 189.85785336 24.00027981 189.86575628 32.56623912 189.87081027 C37.91202779 189.87406452 43.25780924 189.88058528 48.60359383 189.88781166 C63.3970857 189.90737884 78.19057085 189.92378279 92.9840765 189.92668819 C94.40461248 189.92696955 94.40461248 189.92696955 95.85384617 189.92725659 C97.77378404 189.92762284 99.69372192 189.92798654 101.61365979 189.9283477 C103.04329701 189.92862192 103.04329701 189.92862192 104.5018158 189.92890167 C105.93319227 189.9291725 105.93319227 189.9291725 107.39348543 189.92944879 C122.86505267 189.93299246 138.3364809 189.96002636 153.8079999 189.99739956 C169.68253587 190.03544034 185.55700278 190.05484535 201.43158537 190.05514771 C210.34864448 190.05573317 219.26553771 190.06428268 228.18255424 190.09314537 C235.77354915 190.11760262 243.36431767 190.12498053 250.95534127 190.10989784 C254.83035823 190.10270599 258.70492764 190.10368324 262.57989502 190.12630844 C266.77599783 190.15057467 270.97107291 190.13632706 275.16720581 190.1180954 C276.39861154 190.13129537 277.63001727 190.14449533 278.89873832 190.1580953 C285.23203634 190.24896411 285.23203634 190.24896411 290.53280735 187.23294926 C291.71657231 184.63483608 292.27842412 183.03897738 292.28440857 180.21527863 C292.29568787 179.39104401 292.30696716 178.56680939 292.31858826 177.71759796 C292.31049133 176.82705719 292.30239441 175.93651642 292.29405212 175.01898956 C292.3010614 174.07044098 292.30807068 173.1218924 292.31529236 172.14459991 C292.33287565 169.01388901 292.32124811 165.88408443 292.307724 162.75336456 C292.31041881 160.5753029 292.31430114 158.39724242 292.31932068 156.21918488 C292.32521619 151.65624274 292.31665079 147.093614 292.29795837 142.53070831 C292.2751691 136.68281865 292.28829185 130.83566332 292.31224823 124.9878006 C292.32670457 120.49077576 292.3221009 115.99392492 292.31173706 111.49689484 C292.30906934 109.34072533 292.31234112 107.18454001 292.32165527 105.02838898 C292.33181786 102.01441369 292.31632317 99.0016264 292.29405212 95.98773956 C292.30619751 94.65192841 292.30619751 94.65192841 292.31858826 93.28913116 C292.30166931 92.05277924 292.30166931 92.05277924 292.28440857 90.7914505 C292.28290047 90.07986786 292.28139236 89.36828522 292.27983856 88.63513947 C291.448561 85.11463609 290.6193419 83.84585032 287.776474 81.50336456 C283.58664956 80.73230904 279.4231216 80.83868558 275.17393494 80.8819046 C273.21293665 80.87232137 273.21293665 80.87232137 271.21232224 80.86254454 C267.58033743 80.84551802 263.94903982 80.85975782 260.31709099 80.87905931 C256.40154701 80.89445987 252.4860887 80.88109133 248.57054138 80.871315 C240.89875213 80.85677212 233.22722708 80.86903878 225.55546284 80.89042825 C216.62580552 80.91441301 207.69620907 80.91272543 198.7665267 80.91012233 C182.83619376 80.90643024 166.90598548 80.9272742 150.97569275 80.96137238 C135.50951486 80.99446496 120.04346783 81.00863089 104.57725525 81.002388 C87.74504661 80.99562717 70.91289283 80.99807549 54.08069229 81.0177474 C53.19097803 81.01878689 52.30126378 81.01982637 51.38458848 81.02089736 C49.59752661 81.02298829 47.81046476 81.02509927 46.02340293 81.02723053 C39.79554016 81.03413224 33.56769428 81.03479442 27.33982849 81.03334808 C19.75253606 81.03190981 12.16535048 81.04157303 4.57809353 81.06529444 C0.70521668 81.07717161 -3.16751105 81.08426825 -7.04040527 81.07845688 C-11.2340865 81.07235 -15.42734691 81.08941644 -19.62098694 81.10895538 C-20.85171055 81.10362746 -22.08243416 81.09829953 -23.35045242 81.09281015 C-24.47063641 81.10186679 -25.59082039 81.11092343 -26.74494934 81.12025452 C-28.19754465 81.12261132 -28.19754465 81.12261132 -29.67948532 81.12501574 C-32.66730047 81.56936254 -34.0368969 82.45385961 -36.223526 84.50336456 Z M399.401474 112.06586456 C397.99785224 114.17129721 396.87973569 116.23448292 395.776474 118.50336456 C399.65303234 120.72919274 403.53083719 122.95282908 407.40977478 125.17450714 C408.72717076 125.92945029 410.04423371 126.68497489 411.36094666 127.4411087 C413.26158744 128.53243046 415.16344509 129.6216048 417.0655365 130.71039581 C418.20716248 131.36499786 419.34878845 132.01959991 420.52500916 132.69403839 C423.57008094 134.38851406 426.64687399 135.97172588 429.776474 137.50336456 C433.82899439 130.91801893 435.09320228 125.21128934 433.776474 117.50336456 C431.722671 112.45880464 428.75151674 108.6971395 424.026474 105.94086456 C414.30197426 101.93229215 406.32614005 104.59451435 399.401474 112.06586456 Z M384.776474 136.50336456 C384.2502948 137.4508255 384.2502948 137.4508255 383.71348572 138.41742706 C376.06662261 152.17038591 368.29557361 165.83705508 360.338974 179.41352081 C356.6443409 185.71906875 352.98794718 192.04630893 349.338974 198.37836456 C348.40516907 199.99859528 348.40516907 199.99859528 347.45249939 201.65155792 C346.19070574 203.8413279 344.92906866 206.03118811 343.66758728 208.221138 C340.53967252 213.64996399 337.40788952 219.07655737 334.276474 224.50336456 C333.02645521 226.67002039 331.77645521 228.83668706 330.526474 231.00336456 C328.026474 235.3366979 325.526474 239.67003123 323.026474 244.00336456 C322.4072406 245.07675079 321.7880072 246.15013702 321.15000916 247.25605011 C319.90506118 249.41386259 318.6599451 251.57157809 317.41465759 253.72919464 C314.21094749 259.28053049 311.0105377 264.83372998 307.8155365 270.39008331 C306.51102603 272.65711227 305.20634138 274.92404101 303.901474 277.19086456 C303.27813171 278.27432159 302.65478943 279.35777863 302.01255798 280.47406769 C298.16662437 287.14261524 294.27190182 293.77724442 290.21250916 300.31855011 C288.33403818 303.1971507 288.33403818 303.1971507 287.776474 306.50336456 C289.48190369 307.44695831 289.48190369 307.44695831 291.2217865 308.40961456 C292.7817661 309.27404674 294.34165549 310.13864174 295.901474 311.00336456 C296.71229431 311.45244171 297.52311462 311.90151886 298.35850525 312.36420441 C302.26183214 314.53110232 306.15570016 316.71048058 310.0186615 318.94867706 C310.6565863 319.31799347 311.29451111 319.68730988 311.95176697 320.06781769 C313.68717345 321.07646175 315.41941304 322.09054877 317.151474 323.10492706 C319.57495349 324.66009096 319.57495349 324.66009096 321.776474 324.50336456 C322.12726013 323.87172394 322.47804626 323.24008331 322.83946228 322.58930206 C330.48632539 308.83634321 338.25737439 295.16967405 346.213974 281.59320831 C349.9086071 275.28766037 353.56500081 268.9604202 357.213974 262.62836456 C357.83651062 261.54821075 358.45904724 260.46805695 359.10044861 259.3551712 C360.36224226 257.16540122 361.62387934 254.97554101 362.88536072 252.78559113 C366.01327548 247.35676514 369.14505848 241.93017175 372.276474 236.50336456 C373.52649279 234.33670874 374.77649278 232.17004207 376.026474 230.00336456 C379.776474 223.50336456 379.776474 223.50336456 383.526474 217.00336456 C384.1457074 215.92997833 384.7649408 214.8565921 385.40293884 213.75067902 C386.64788682 211.59286653 387.8930029 209.43515104 389.13829041 207.27753448 C392.34200051 201.72619864 395.5424103 196.17299915 398.7374115 190.61664581 C405.31568681 179.18303497 411.91587127 167.77037067 418.776474 156.50336456 C416.3846832 153.85332147 413.83790068 152.2497811 410.73350525 150.50727081 C409.74157166 149.94846222 408.74963806 149.38965363 407.72764587 148.81391144 C406.69188416 148.23705597 405.65612244 147.6602005 404.588974 147.06586456 C403.57254822 146.49287628 402.55612244 145.919888 401.50889587 145.32953644 C395.99768302 142.23770689 390.45688319 139.27213886 384.776474 136.50336456 Z M281.776474 327.50336456 C279.84881372 337.7773837 278.79846279 348.10952112 277.776474 358.50336456 C281.65155236 357.12833676 284.61635607 355.33975143 287.901474 352.87836456 C288.84893494 352.17453644 289.79639587 351.47070831 290.77256775 350.74555206 C291.76385681 350.00563019 292.75514587 349.26570831 293.776474 348.50336456 C295.83698967 347.0006399 297.8994024 345.50051197 299.963974 344.00336456 C300.88565369 343.33305206 301.80733337 342.66273956 302.75694275 341.97211456 C303.42338806 341.48742706 304.08983337 341.00273956 304.776474 340.50336456 C300.6644987 336.98112246 296.29806247 334.36999834 291.588974 331.75336456 C290.86516541 331.34215363 290.14135681 330.93094269 289.39561462 330.50727081 C285.80720847 328.29179759 285.80720847 328.29179759 281.776474 327.50336456 Z " fill="#000000" transform="translate(57.22352600097656,22.49663543701172)"/>
<path d="M0 0 C3.60382332 2.72010317 6.77000076 5.85211938 10 9 C12.13247564 11.01459344 14.28393416 13.00800895 16.4375 15 C16.94563232 15.48065918 17.45376465 15.96131836 17.97729492 16.45654297 C20.32448909 18.64201093 21.91515788 19.97171929 25 21 C26.66801656 20.01785381 26.66801656 20.01785381 28.3125 18.375 C29.00601563 17.73949219 29.69953125 17.10398438 30.4140625 16.44921875 C31.83045548 15.1077106 33.24624849 13.7655639 34.65917969 12.42041016 C35.87689039 11.26242997 37.09692614 10.10689061 38.3190918 8.95361328 C39.54878451 7.79124596 40.77182768 6.62179663 41.98754883 5.44482422 C46.25596485 1.39942531 49.38117003 -1.04676482 55.5 -0.9375 C59.79840302 0.21385795 61.23675034 1.53897322 64 5 C64.49649058 7.70006876 64.68676097 9.77265935 64.64697266 12.46484375 C64.65573425 13.19881378 64.66449585 13.93278381 64.67352295 14.68899536 C64.69546007 17.10577189 64.68098646 19.52070616 64.6640625 21.9375 C64.66743232 23.62231801 64.67228632 25.30713365 64.67855835 26.99194336 C64.6859219 30.51927892 64.67524146 34.04598046 64.65185547 37.57324219 C64.62336726 42.08963994 64.63977412 46.60455212 64.66971779 51.12089539 C64.68780519 54.59886829 64.68202628 58.07649027 64.66907883 61.55447388 C64.66574877 63.21941301 64.66981787 64.88438424 64.68147659 66.54928589 C64.69421009 68.87876483 64.67477815 71.20585483 64.64697266 73.53515625 C64.66215439 74.56239304 64.66215439 74.56239304 64.67764282 75.61038208 C64.59414267 79.39550383 64.05863982 80.92786477 61.63925171 83.90405273 C58.52763464 86.37512636 56.96618763 87 53 87 C49.3125 86 49.3125 86 46 84 C42.9152616 78.43524164 42.53491727 73.62933388 42.48828125 67.34765625 C42.47033005 66.44752304 42.45237885 65.54738983 42.43388367 64.61997986 C42.38004755 61.76753309 42.34597112 58.91525107 42.3125 56.0625 C42.27930332 54.11911783 42.2448115 52.17575733 42.20898438 50.23242188 C42.12433659 45.48840064 42.05739864 40.744426 42 36 C40.84371094 37.06541016 40.84371094 37.06541016 39.6640625 38.15234375 C38.65114976 39.0808471 37.63812299 40.00922606 36.625 40.9375 C35.86316406 41.64036133 35.86316406 41.64036133 35.0859375 42.35742188 C30.94824379 46.14123389 28.44371615 47.63048009 22.65234375 47.62109375 C15.9198047 46.04454926 10.74691392 39.77350487 6 35 C5.99857498 35.55043976 5.99714996 36.10087952 5.99568176 36.66799927 C5.97595324 42.41133071 5.92161294 48.15360383 5.84741211 53.89648438 C5.82425437 56.03800863 5.80984163 58.17964641 5.80444336 60.32128906 C5.79513778 63.40501473 5.75411072 66.48696018 5.70703125 69.5703125 C5.71293022 71.00034103 5.71293022 71.00034103 5.71894836 72.45925903 C5.62237659 76.88631121 5.45207329 80.04167397 2.63549805 83.58544922 C-0.45982003 86.42127097 -1.81832857 87.08363343 -6 87 C-10.16410723 85.80017249 -12.35131481 85.03420708 -14.68276978 81.31713867 C-16.14906492 77.6246146 -16.38037951 74.95156904 -16.38818359 70.98828125 C-16.39344055 70.31429291 -16.39869751 69.64030457 -16.40411377 68.94589233 C-16.41723717 66.73452058 -16.4086036 64.52387813 -16.3984375 62.3125 C-16.40046045 60.76603051 -16.40337374 59.21956195 -16.40713501 57.6730957 C-16.41154797 54.43854655 -16.40516069 51.20424665 -16.39111328 47.96972656 C-16.37402178 43.83378762 -16.38386852 39.6984328 -16.40183067 35.56251526 C-16.41269648 32.37109007 -16.40920941 29.17980224 -16.4014473 25.9883728 C-16.39945301 24.46381561 -16.40187736 22.93924575 -16.40888596 21.41470337 C-16.41654691 19.28004143 -16.40483294 17.14631166 -16.38818359 15.01171875 C-16.38579681 13.79959717 -16.38341003 12.58747559 -16.38095093 11.33862305 C-15.95401166 7.59696189 -14.96388944 5.19786343 -13 2 C-8.44408906 -1.20984634 -5.28407096 -1.76135699 0 0 Z " fill="#000000" transform="translate(263,115)"/>
<path d="M0 0 C1.29670876 -0.00956978 1.29670876 -0.00956978 2.61961365 -0.01933289 C3.54572952 -0.02044571 4.4718454 -0.02155853 5.42602539 -0.02270508 C6.86468712 -0.02769768 6.86468712 -0.02769768 8.33241272 -0.03279114 C10.3589734 -0.03784912 12.38554239 -0.04019981 14.41210938 -0.04003906 C17.50868466 -0.04222574 20.60490372 -0.06039399 23.70141602 -0.0793457 C25.67211792 -0.08227983 27.64282152 -0.0842645 29.61352539 -0.08520508 C30.99966286 -0.09598335 30.99966286 -0.09598335 32.4138031 -0.10697937 C38.25270329 -0.08627441 42.42899354 0.16298271 46.89868164 4.27026367 C49.09404423 8.01051104 49.460261 10.90340795 48.58618164 15.14526367 C46.79254253 17.95529828 45.56737229 19.65466835 42.58618164 21.14526367 C39.95991031 21.23193622 37.36055681 21.26086503 34.73461914 21.24291992 C33.96058746 21.24150497 33.18655579 21.24009003 32.3890686 21.2386322 C29.91306723 21.2330277 27.43715576 21.2204745 24.96118164 21.20776367 C23.28409961 21.20274925 21.60701617 21.19818624 19.92993164 21.1940918 C15.81531358 21.18305682 11.70076286 21.16578921 7.58618164 21.14526367 C7.58618164 25.43526367 7.58618164 29.72526367 7.58618164 34.14526367 C9.18848633 34.08725586 10.79079102 34.02924805 12.44165039 33.96948242 C14.55229833 33.92257913 16.66297779 33.87707959 18.77368164 33.83276367 C19.8287793 33.79086914 20.88387695 33.74897461 21.97094727 33.70581055 C29.81024702 33.58216229 29.81024702 33.58216229 33.76196289 36.44995117 C36.06503479 39.85277689 36.58618164 42.03860745 36.58618164 46.14526367 C35.07101536 50.1604543 34.18065634 51.7489472 30.58618164 54.14526367 C28.13427734 54.37231445 28.13427734 54.37231445 25.26196289 54.34057617 C23.71992187 54.3309082 23.71992187 54.3309082 22.14672852 54.32104492 C21.07487305 54.30428711 20.00301758 54.2875293 18.89868164 54.27026367 C17.81522461 54.26124023 16.73176758 54.2522168 15.61547852 54.24291992 C12.93895216 54.21933819 10.26253923 54.18346703 7.58618164 54.14526367 C7.58618164 58.43526367 7.58618164 62.72526367 7.58618164 67.14526367 C8.62025146 67.12431641 9.65432129 67.10336914 10.71972656 67.08178711 C14.56805493 67.00921079 18.41632318 66.9634005 22.26513672 66.92553711 C23.92865177 66.9054616 25.5920966 66.87819491 27.25537109 66.84350586 C29.65097404 66.79480601 32.04564156 66.77225512 34.44165039 66.75463867 C35.55131416 66.72367096 35.55131416 66.72367096 36.68339539 66.69207764 C40.37506664 66.69048508 42.39909864 67.02466497 45.53271484 69.04467773 C48.65087159 72.23438415 48.98661727 74.56790377 48.93774414 79.03979492 C48.30278421 82.84249938 46.37550408 84.54612231 43.58618164 87.14526367 C40.76130177 88.11530801 38.1446454 88.27557438 35.17236328 88.29052734 C33.87565453 88.30009712 33.87565453 88.30009712 32.55274963 88.30986023 C31.62663376 88.31097305 30.70051788 88.31208588 29.74633789 88.31323242 C28.30767616 88.31822502 28.30767616 88.31822502 26.83995056 88.32331848 C24.81338988 88.32837646 22.78682089 88.33072716 20.76025391 88.33056641 C17.66367862 88.33275308 14.56745956 88.35092134 11.47094727 88.36987305 C9.50024536 88.37280717 7.52954176 88.37479184 5.55883789 88.37573242 C4.17270042 88.3865107 4.17270042 88.3865107 2.75856018 88.39750671 C-5.77346877 88.36725182 -5.77346877 88.36725182 -9.41381836 86.14526367 C-13.37042618 82.13689715 -13.92042321 79.4462058 -13.94726562 73.87988281 C-13.9558812 73.16702621 -13.96449677 72.45416962 -13.97337341 71.7197113 C-13.99599983 69.37290711 -13.98930111 67.0273004 -13.98022461 64.68041992 C-13.98546199 63.042838 -13.9917389 61.4052591 -13.99900818 59.76768494 C-14.0094064 56.3387938 -14.00485993 52.91031781 -13.99023438 49.48144531 C-13.97305339 45.09521011 -13.99653508 40.71028574 -14.03172398 36.32419682 C-14.05372461 32.94314453 -14.05225006 29.56240457 -14.04395866 26.18130302 C-14.04314047 24.56462606 -14.04997866 22.94792587 -14.06472969 21.33131599 C-14.08222513 19.06674687 -14.06759584 16.80451574 -14.04492188 14.54003906 C-14.04396011 13.25384171 -14.04299835 11.96764435 -14.04200745 10.64247131 C-13.20683973 5.99298763 -11.80598192 4.39947898 -8.41381836 1.14526367 C-5.64844101 -0.03049771 -2.98894029 0.01503677 0 0 Z " fill="#000000" transform="translate(55.413818359375,113.854736328125)"/>
<path d="M0 0 C0.66550891 -0.00453111 1.33101781 -0.00906223 2.01669365 -0.01373065 C4.24525438 -0.02638443 6.47357103 -0.02475369 8.7021637 -0.02310181 C10.30053522 -0.02908639 11.89890385 -0.03589178 13.49726868 -0.04345703 C17.83815363 -0.06112981 22.17895975 -0.0658129 26.5198772 -0.0670886 C30.14322368 -0.06898766 33.76655179 -0.07634513 37.38989121 -0.08343279 C45.93751364 -0.09971865 54.48509394 -0.10460151 63.0327301 -0.10317993 C71.85216227 -0.10197793 80.67134994 -0.12309101 89.49072021 -0.15466726 C97.06195333 -0.18080947 104.63310648 -0.19154812 112.20438439 -0.19026911 C116.7267412 -0.18975894 121.24888067 -0.19547271 125.77119255 -0.21662521 C130.02383756 -0.23597349 134.27605712 -0.23615567 138.52871704 -0.22159195 C140.08919457 -0.2194986 141.64969849 -0.22423606 143.21013069 -0.23631287 C145.34127208 -0.2517381 147.47094137 -0.24247762 149.60205078 -0.22705078 C150.79426459 -0.22814032 151.9864784 -0.22922985 153.21481991 -0.2303524 C157.02941441 0.37250584 158.65879224 1.55543115 161.36451721 4.26742554 C163.2881017 8.51534128 163.58043847 10.50535051 162.30201721 15.01742554 C160.17789204 18.58047421 159.05183939 19.52597265 155.36451721 21.26742554 C152.24884796 21.64494896 152.24884796 21.64494896 148.68470764 21.64837646 C147.6974133 21.65539642 147.6974133 21.65539642 146.69017363 21.6625582 C144.49222172 21.67449154 142.29489524 21.665058 140.09693909 21.65560913 C138.51812375 21.65967559 136.93931126 21.66501789 135.36050415 21.67153931 C131.07747221 21.68520994 126.79465718 21.67991533 122.51162148 21.67040205 C118.02829531 21.66280415 113.54498766 21.66985143 109.06166077 21.67456055 C101.53285896 21.68001772 94.00414545 21.6728275 86.47535706 21.65853882 C77.7723818 21.64221237 69.06961739 21.6475009 60.36664724 21.66401803 C52.89305107 21.677634 45.41951836 21.67955202 37.94591379 21.67170203 C33.48286896 21.66702612 29.01992322 21.6663984 24.55688477 21.67631149 C20.36089653 21.6849805 16.16518001 21.67896055 11.96922112 21.66162872 C10.42971688 21.65766352 8.89018977 21.65879853 7.35069466 21.66541672 C5.24826382 21.67362131 3.14670231 21.66332498 1.04432678 21.64837646 C-0.13183952 21.64724539 -1.30800583 21.64611431 -2.51981354 21.64494896 C-6.79938754 21.12639603 -9.38537829 19.47442298 -12.44798279 16.51742554 C-14.16416604 13.2657099 -14.01710367 10.89282392 -13.63548279 7.26742554 C-12.40257639 4.49338613 -11.4811023 2.82629828 -8.94082546 1.14742088 C-5.87304521 -0.02361211 -3.28443064 0.00923649 0 0 Z " fill="#000000" transform="translate(129.63548278808594,392.7325744628906)"/>
<path d="M0 0 C0.98367271 -0.00551503 0.98367271 -0.00551503 1.98721761 -0.01114148 C4.18884857 -0.0221714 6.39043233 -0.02602095 8.59208679 -0.02983093 C10.16898244 -0.03609605 11.74587661 -0.04274289 13.32276917 -0.04974365 C18.50457227 -0.07077856 23.68637567 -0.08114465 28.86820984 -0.09111023 C30.65205081 -0.09515782 32.43589163 -0.09927475 34.21973228 -0.10346031 C42.5993227 -0.12250974 50.97890432 -0.136742 59.35851222 -0.14507228 C69.03236203 -0.15484797 78.70598322 -0.18117712 88.37975246 -0.22157317 C95.85670457 -0.25172478 103.33359111 -0.2665402 110.81060284 -0.26985329 C115.27657188 -0.27220465 119.74229661 -0.28117619 124.20820045 -0.30631447 C128.4099296 -0.32958395 132.61125338 -0.33383308 136.81303024 -0.32355309 C138.35374359 -0.32305736 139.89447683 -0.3293888 141.43512917 -0.34310913 C143.54187316 -0.3608187 145.64716077 -0.35372859 147.75390625 -0.34057617 C148.9317484 -0.34296453 150.10959055 -0.34535288 151.32312489 -0.34781361 C155.30480207 0.25967237 157.46291616 1.61813094 160.56742859 4.14717102 C162.5827892 8.41973552 162.80577778 10.35267372 161.44242859 14.89717102 C159.58447411 18.11762546 158.71484415 19.33794876 155.56742859 21.14717102 C152.54357243 21.52469444 152.54357243 21.52469444 148.9319458 21.52812195 C147.93368244 21.53514191 147.93368244 21.53514191 146.91525215 21.54230368 C144.68655906 21.55426406 142.4584797 21.54479281 140.2297821 21.53535461 C138.63141013 21.53941991 137.03304096 21.54476155 135.43467712 21.55128479 C131.09373764 21.56497037 126.75301187 21.55965436 122.41206861 21.55014753 C117.87001291 21.54255605 113.3279756 21.54959525 108.78591919 21.55430603 C101.15698459 21.55976563 93.52813708 21.5525672 85.8992157 21.5382843 C77.0798146 21.52196323 68.26062162 21.5272415 59.44122559 21.54376352 C51.86998608 21.55737954 44.29880921 21.5592973 36.72756141 21.55144751 C32.20525733 21.54677088 27.68305105 21.54614574 23.16075325 21.55605698 C18.90814607 21.56472585 14.65580699 21.55870624 10.40322876 21.54137421 C8.84276207 21.53740868 7.2822728 21.53854456 5.72181511 21.5451622 C3.59087089 21.55336565 1.46078464 21.54307168 -0.67010498 21.52812195 C-2.4584257 21.52642533 -2.4584257 21.52642533 -4.28287411 21.52469444 C-7.75685647 21.10830214 -9.63219524 20.2034029 -12.43257141 18.14717102 C-15.0044682 14.7179753 -14.93471341 11.30777616 -14.43257141 7.14717102 C-10.81083204 0.90663549 -6.86256408 0.02492289 0 0 Z " fill="#000000" transform="translate(130.4325714111328,337.8528289794922)"/>
<path d="M0 0 C6.89929706 5.57373767 11.38104625 14.54264157 16 22 C20.34962514 18.06318651 23.17954707 13.31436729 26.2890625 8.40039062 C29.23600209 3.84890571 31.50637915 0.68972492 36.9375 -0.8125 C40.39160952 -1.02397609 42.01466747 -0.72835041 45 1 C48.18731264 3.92888188 48.94599906 5.42410173 49.35375977 9.77270508 C49.24800919 14.25914914 47.65629116 16.85614774 45.02734375 20.51171875 C44.62544327 21.08783401 44.22354279 21.66394928 43.8094635 22.25752258 C42.53607906 24.08048417 41.23976832 25.8850834 39.9375 27.6875 C38.63309266 29.5014377 37.33502789 31.3184997 36.05482483 33.14961243 C34.89776925 34.80390038 33.71882925 36.4428177 32.53881836 38.08081055 C30.79993113 40.82064953 30.79993113 40.82064953 31.02148438 43.51367188 C32.25302733 46.64292175 33.88964833 49.13602872 35.81640625 51.89453125 C36.58847765 53.02629247 37.35994331 54.15846711 38.13085938 55.29101562 C39.3437671 57.05361793 40.56202643 58.81182572 41.79174805 60.56274414 C49.52344594 71.61846578 49.52344594 71.61846578 49.625 76.64453125 C48.87953008 80.64677289 48.07130322 82.3224536 45 85 C41.0499334 86.78870941 38.82025612 87.16405122 34.5625 86.3125 C29.1833232 83.59878973 26.20548667 77.87622518 23 73 C22.39285156 72.10152344 21.78570312 71.20304687 21.16015625 70.27734375 C19.75748439 68.19478859 18.3711117 66.10341 17 64 C13.30389588 68.51079065 9.96337077 73.22917878 6.62304688 78.00390625 C1.2566673 85.60015131 1.2566673 85.60015131 -2.75 86.875 C-6.95720838 87.03681571 -9.35000022 86.06603761 -13 84 C-15 81.8125 -15 81.8125 -16 79 C-15.70668232 72.88941284 -14.53673275 69.54528905 -10.89453125 64.48828125 C-10.06828685 63.30669134 -9.24211711 62.12504921 -8.41601562 60.94335938 C-7.11058767 59.11635238 -5.79907671 57.29390878 -4.48461914 55.47338867 C-3.21007307 53.69700047 -1.95809219 51.90625073 -0.70703125 50.11328125 C0.0511792 49.05923096 0.80938965 48.00518066 1.59057617 46.91918945 C3.30045705 44.13860793 3.30045705 44.13860793 2.46044922 41.45898438 C0.84525435 38.73945199 -0.83897761 36.1302504 -2.66015625 33.54296875 C-3.37107422 32.51236328 -4.08199219 31.48175781 -4.81445312 30.41992188 C-6.30894203 28.27102601 -7.81152215 26.12773401 -9.32226562 23.99023438 C-16.19728394 13.96806871 -16.19728394 13.96806871 -16 7 C-14.31672123 3.50395947 -12.98214784 1.61052434 -9.6875 -0.4375 C-5.90564415 -1.22905122 -3.72951278 -1.157435 0 0 Z " fill="#000000" transform="translate(123,115)"/>
<path d="M0 0 C0.67282158 -0.00523668 1.34564317 -0.01047336 2.03885329 -0.01586872 C4.29814825 -0.03089592 6.55721729 -0.03157446 8.81655884 -0.03224182 C10.43448775 -0.03986148 12.05241303 -0.04828864 13.67033386 -0.0574646 C18.06911893 -0.07943533 22.46783448 -0.08821192 26.86666822 -0.09329104 C29.61405865 -0.0969315 32.36143078 -0.10316993 35.10881424 -0.11029243 C44.69125419 -0.13479564 54.27363994 -0.14784076 63.85610962 -0.15138245 C72.79201583 -0.15501867 81.72757876 -0.18491789 90.66338003 -0.22678703 C98.332257 -0.26146183 106.00102006 -0.2769304 113.66997492 -0.27762848 C118.25164751 -0.27842225 122.83297054 -0.28720621 127.41456223 -0.31562614 C131.72388988 -0.34175891 136.03257699 -0.34403916 140.34194756 -0.3279705 C141.92339535 -0.32615218 143.50487957 -0.33288137 145.0862484 -0.34878922 C147.24616677 -0.36919203 149.40383164 -0.35873632 151.5637207 -0.34057617 C152.77198202 -0.3425875 153.98024334 -0.34459883 155.22511864 -0.3466711 C159.33675032 0.4550962 160.81062685 2.0593471 163.40884399 5.27415466 C164.79256471 9.25235171 164.50150427 10.99617384 163.15884399 15.02415466 C161.40884399 18.27415466 161.40884399 18.27415466 158.40884399 20.27415466 C155.47680092 20.53142357 155.47680092 20.53142357 151.81768799 20.5415802 C151.1448664 20.54611131 150.47204482 20.55064243 149.7788347 20.55531085 C147.51953012 20.5679926 145.26046543 20.56633208 143.00112915 20.56468201 C141.38320098 20.57066492 139.76527566 20.57746992 138.14735413 20.58503723 C133.74856079 20.60272886 129.34984523 20.60739395 124.95101976 20.6086688 C121.28050232 20.61056646 117.61000304 20.61792248 113.93949258 20.62501299 C105.2801785 20.64130666 96.62090602 20.64618107 87.96157837 20.64476013 C79.02572071 20.64355851 70.09010451 20.6646621 61.15430796 20.69624746 C53.48543142 20.72238978 45.81663383 20.73312828 38.14771307 20.73184931 C33.56609769 20.73133906 28.98469681 20.73705678 24.40312576 20.75820541 C20.09386227 20.77755341 15.78501864 20.77773603 11.47574043 20.76317215 C9.89430059 20.76107864 8.31283471 20.76581721 6.73143959 20.77789307 C4.57178727 20.79331618 2.413588 20.78405901 0.25396729 20.76863098 C-0.95429403 20.76972052 -2.16255535 20.77081005 -3.40743065 20.7719326 C-7.21848988 20.17607052 -8.87771296 18.96536931 -11.59115601 16.27415466 C-13.13040077 12.13743436 -13.05735975 8.36973347 -11.34115601 4.33665466 C-7.81710104 0.18330417 -5.22028115 0.02010502 0 0 Z " fill="#000000" transform="translate(128.59115600585938,283.72584533691406)"/>
<path d="M0 0 C5.51004915 5.20393531 7.47117799 11.72299642 9.9765625 18.73828125 C10.42848969 19.97362106 10.88041687 21.20896088 11.34603882 22.48173523 C12.54281181 25.75403966 13.72452361 29.03158761 14.90325928 32.3104248 C16.09774591 35.62387517 17.30764377 38.93168589 18.515625 42.24023438 C25.07463928 60.23971229 25.07463928 60.23971229 27.76318359 68.05932617 C27.99331146 68.72751877 28.22343933 69.39571136 28.46054077 70.08415222 C29.58962558 74.09400969 30.04869017 77.93847231 28.0859375 81.796875 C26.0899189 84.50115826 24.26368742 85.9025503 21.125 87.0625 C16.93751219 86.97875024 14.5877121 86.19249073 11 84 C7.68922807 79.43871979 6.54444305 74.40555069 5 69 C-1.93 69 -8.86 69 -16 69 C-16.33 70.65 -16.66 72.3 -17 74 C-17.57557482 75.56079298 -18.20082794 77.10419326 -18.875 78.625 C-19.20242187 79.38039063 -19.52984375 80.13578125 -19.8671875 80.9140625 C-21.66986966 84.23348413 -23.13229235 85.7239112 -26.75 86.875 C-30.95720838 87.03681571 -33.35000022 86.06603761 -37 84 C-39 81.875 -39 81.875 -40 79 C-39.67927707 71.03991901 -37.22077782 64.21649906 -34.484375 56.78515625 C-34.026259 55.52185433 -33.56885472 54.25829411 -33.11212158 52.99449158 C-32.15666682 50.35736956 -31.19450319 47.72283146 -30.22705078 45.09008789 C-28.99800437 41.74459289 -27.78315233 38.39416524 -26.57302475 35.04178715 C-25.63055314 32.43440287 -24.68187527 29.82931073 -23.73126984 27.22488213 C-23.0656949 25.39927734 -22.40409639 23.57222437 -21.74261475 21.74513245 C-15.03994247 3.55213014 -15.03994247 3.55213014 -10.125 -0.1875 C-6.19172657 -1.21015109 -3.89725612 -1.20460644 0 0 Z M-6 41 C-6.66 43.31 -7.32 45.62 -8 48 C-6.35 48 -4.7 48 -3 48 C-3.66 45.69 -4.32 43.38 -5 41 C-5.33 41 -5.66 41 -6 41 Z " fill="#000000" transform="translate(215,115)"/>
</svg>
